<mxfile host="65bd71144e">
    <diagram id="36vfXSO_92MlgEdl4lXv" name="Page-1">
        <mxGraphModel dx="898" dy="2060" grid="1" gridSize="10" guides="1" tooltips="1" connect="1" arrows="1" fold="1" page="1" pageScale="1" pageWidth="850" pageHeight="1100" math="0" shadow="0">
            <root>
                <mxCell id="0"/>
                <mxCell id="1" parent="0"/>
                <mxCell id="12" value="" style="edgeStyle=none;html=1;" parent="1" source="10" target="11" edge="1">
                    <mxGeometry relative="1" as="geometry"/>
                </mxCell>
                <mxCell id="10" value="Projects" style="shape=cylinder3;whiteSpace=wrap;html=1;boundedLbl=1;backgroundOutline=1;size=15;labelBackgroundColor=none;fillColor=#485561;gradientColor=#1638E0;" parent="1" vertex="1">
                    <mxGeometry x="70" y="10" width="60" height="80" as="geometry"/>
                </mxCell>
                <mxCell id="11" value="name ,&amp;nbsp; typeCoding ? , link to The project github&lt;br&gt;" style="whiteSpace=wrap;html=1;fillColor=#485561;labelBackgroundColor=none;gradientColor=#1638E0;" parent="1" vertex="1">
                    <mxGeometry x="180" y="20" width="380" height="60" as="geometry"/>
                </mxCell>
                <mxCell id="27" value="" style="group" parent="1" vertex="1" connectable="0">
                    <mxGeometry x="1820" y="100" width="570" height="370" as="geometry"/>
                </mxCell>
                <mxCell id="28" value="" style="rounded=0;whiteSpace=wrap;html=1;fillColor=#647687;fontColor=#ffffff;strokeColor=#314354;" parent="27" vertex="1">
                    <mxGeometry width="570" height="370" as="geometry"/>
                </mxCell>
                <mxCell id="29" value="" style="group" parent="27" vertex="1" connectable="0">
                    <mxGeometry width="570" height="38.54166666666667" as="geometry"/>
                </mxCell>
                <mxCell id="30" value="" style="rounded=0;whiteSpace=wrap;html=1;fillColor=#485561;fontColor=#ffffff;strokeColor=#314354;" parent="29" vertex="1">
                    <mxGeometry width="570" height="38.54166666666667" as="geometry"/>
                </mxCell>
                <mxCell id="31" value="LOGO" style="text;html=1;strokeColor=none;fillColor=none;align=center;verticalAlign=middle;whiteSpace=wrap;rounded=0;" parent="29" vertex="1">
                    <mxGeometry x="31.23287671232877" y="7.708333333333333" width="46.84931506849315" height="23.125" as="geometry"/>
                </mxCell>
                <mxCell id="32" value="" style="group" parent="29" vertex="1" connectable="0">
                    <mxGeometry x="343.5616438356164" y="7.708333333333333" width="195.2054794520548" height="23.125" as="geometry"/>
                </mxCell>
                <mxCell id="34" value="About" style="text;html=1;strokeColor=none;fillColor=none;align=center;verticalAlign=middle;whiteSpace=wrap;rounded=0;" parent="32" vertex="1">
                    <mxGeometry x="46.84931506849314" width="46.84931506849314" height="23.125" as="geometry"/>
                </mxCell>
                <mxCell id="35" value="Home" style="text;html=1;strokeColor=none;fillColor=none;align=center;verticalAlign=middle;whiteSpace=wrap;rounded=0;" parent="32" vertex="1">
                    <mxGeometry x="-0.0013698630137213286" width="46.84931506849314" height="23.125" as="geometry"/>
                </mxCell>
                <mxCell id="36" value="projects" style="text;html=1;strokeColor=none;fillColor=none;align=center;verticalAlign=middle;whiteSpace=wrap;rounded=0;" parent="32" vertex="1">
                    <mxGeometry x="148.35616438356163" width="46.84931506849314" height="23.125" as="geometry"/>
                </mxCell>
                <mxCell id="33" value="conact-us" style="text;html=1;strokeColor=#6c8ebf;fillColor=#dae8fc;align=center;verticalAlign=middle;whiteSpace=wrap;rounded=0;gradientColor=#1638E0;" parent="32" vertex="1">
                    <mxGeometry x="93.69999999999999" y="-1.4210854715202004e-14" width="46.84931506849314" height="23.125" as="geometry"/>
                </mxCell>
                <mxCell id="37" value="" style="group" parent="1" vertex="1" connectable="0">
                    <mxGeometry x="2720" y="120" width="570" height="370" as="geometry"/>
                </mxCell>
                <mxCell id="38" value="" style="rounded=0;whiteSpace=wrap;html=1;fillColor=#647687;fontColor=#ffffff;strokeColor=#314354;" parent="37" vertex="1">
                    <mxGeometry width="570" height="370" as="geometry"/>
                </mxCell>
                <mxCell id="39" value="" style="group" parent="37" vertex="1" connectable="0">
                    <mxGeometry width="570" height="38.54166666666667" as="geometry"/>
                </mxCell>
                <mxCell id="40" value="" style="rounded=0;whiteSpace=wrap;html=1;fillColor=#485561;fontColor=#ffffff;strokeColor=#314354;" parent="39" vertex="1">
                    <mxGeometry width="570" height="38.54166666666667" as="geometry"/>
                </mxCell>
                <mxCell id="41" value="LOGO" style="text;html=1;strokeColor=none;fillColor=none;align=center;verticalAlign=middle;whiteSpace=wrap;rounded=0;" parent="39" vertex="1">
                    <mxGeometry x="31.23287671232877" y="7.708333333333333" width="46.84931506849315" height="23.125" as="geometry"/>
                </mxCell>
                <mxCell id="42" value="" style="group" parent="39" vertex="1" connectable="0">
                    <mxGeometry x="343.5616438356164" y="7.708333333333333" width="195.2054794520548" height="23.125" as="geometry"/>
                </mxCell>
                <mxCell id="43" value="Home" style="text;html=1;strokeColor=#6c8ebf;fillColor=#dae8fc;align=center;verticalAlign=middle;whiteSpace=wrap;rounded=0;gradientColor=#1638E0;" parent="42" vertex="1">
                    <mxGeometry width="46.84931506849314" height="23.125" as="geometry"/>
                </mxCell>
                <mxCell id="44" value="About" style="text;html=1;strokeColor=none;fillColor=none;align=center;verticalAlign=middle;whiteSpace=wrap;rounded=0;" parent="42" vertex="1">
                    <mxGeometry x="46.84931506849314" width="46.84931506849314" height="23.125" as="geometry"/>
                </mxCell>
                <mxCell id="45" value="conact-us" style="text;html=1;strokeColor=none;fillColor=none;align=center;verticalAlign=middle;whiteSpace=wrap;rounded=0;" parent="42" vertex="1">
                    <mxGeometry x="93.69863013698628" width="46.84931506849314" height="23.125" as="geometry"/>
                </mxCell>
                <mxCell id="46" value="projects" style="text;html=1;strokeColor=none;fillColor=none;align=center;verticalAlign=middle;whiteSpace=wrap;rounded=0;" parent="42" vertex="1">
                    <mxGeometry x="148.35616438356163" width="46.84931506849314" height="23.125" as="geometry"/>
                </mxCell>
                <mxCell id="16" value="" style="group;fontSize=7;" parent="1" vertex="1" connectable="0">
                    <mxGeometry x="120" y="100" width="710" height="380" as="geometry"/>
                </mxCell>
                <mxCell id="17" value="&lt;span style=&quot;color: rgba(0, 0, 0, 0); font-family: monospace; font-size: 0px; text-align: start;&quot;&gt;%3CmxGraphModel%3E%3Croot%3E%3CmxCell%20id%3D%220%22%2F%3E%3CmxCell%20id%3D%221%22%20parent%3D%220%22%2F%3E%3CmxCell%20id%3D%222%22%20value%3D%22%22%20style%3D%22group%3BfontSize%3D7%3B%22%20vertex%3D%221%22%20connectable%3D%220%22%20parent%3D%221%22%3E%3CmxGeometry%20x%3D%22120%22%20y%3D%22100%22%20width%3D%22570%22%20height%3D%22370%22%20as%3D%22geometry%22%2F%3E%3C%2FmxCell%3E%3CmxCell%20id%3D%223%22%20value%3D%22%22%20style%3D%22rounded%3D0%3BwhiteSpace%3Dwrap%3Bhtml%3D1%3BfillColor%3D%23647687%3BfontColor%3D%23ffffff%3BstrokeColor%3D%23314354%3B%22%20vertex%3D%221%22%20parent%3D%222%22%3E%3CmxGeometry%20width%3D%22570%22%20height%3D%22370%22%20as%3D%22geometry%22%2F%3E%3C%2FmxCell%3E%3CmxCell%20id%3D%224%22%20value%3D%22%22%20style%3D%22group%22%20vertex%3D%221%22%20connectable%3D%220%22%20parent%3D%222%22%3E%3CmxGeometry%20width%3D%22570%22%20height%3D%2238.54166666666667%22%20as%3D%22geometry%22%2F%3E%3C%2FmxCell%3E%3CmxCell%20id%3D%225%22%20value%3D%22%22%20style%3D%22rounded%3D0%3BwhiteSpace%3Dwrap%3Bhtml%3D1%3BfillColor%3D%23485561%3BfontColor%3D%23ffffff%3BstrokeColor%3D%23314354%3B%22%20vertex%3D%221%22%20parent%3D%224%22%3E%3CmxGeometry%20width%3D%22570%22%20height%3D%2238.54166666666667%22%20as%3D%22geometry%22%2F%3E%3C%2FmxCell%3E%3CmxCell%20id%3D%226%22%20value%3D%22LOGO%22%20style%3D%22text%3Bhtml%3D1%3BstrokeColor%3Dnone%3BfillColor%3Dnone%3Balign%3Dcenter%3BverticalAlign%3Dmiddle%3BwhiteSpace%3Dwrap%3Brounded%3D0%3B%22%20vertex%3D%221%22%20parent%3D%224%22%3E%3CmxGeometry%20x%3D%2231.23287671232877%22%20y%3D%227.708333333333333%22%20width%3D%2246.84931506849315%22%20height%3D%2223.125%22%20as%3D%22geometry%22%2F%3E%3C%2FmxCell%3E%3CmxCell%20id%3D%227%22%20value%3D%22%22%20style%3D%22group%22%20vertex%3D%221%22%20connectable%3D%220%22%20parent%3D%224%22%3E%3CmxGeometry%20x%3D%22343.5616438356164%22%20y%3D%227.708333333333333%22%20width%3D%22195.2054794520548%22%20height%3D%2223.125%22%20as%3D%22geometry%22%2F%3E%3C%2FmxCell%3E%3CmxCell%20id%3D%228%22%20value%3D%22Home%22%20style%3D%22text%3Bhtml%3D1%3BstrokeColor%3D%236c8ebf%3BfillColor%3D%23dae8fc%3Balign%3Dcenter%3BverticalAlign%3Dmiddle%3BwhiteSpace%3Dwrap%3Brounded%3D0%3BgradientColor%3D%231638E0%3B%22%20vertex%3D%221%22%20parent%3D%227%22%3E%3CmxGeometry%20width%3D%2246.84931506849314%22%20height%3D%2223.125%22%20as%3D%22geometry%22%2F%3E%3C%2FmxCell%3E%3CmxCell%20id%3D%229%22%20value%3D%22About%22%20style%3D%22text%3Bhtml%3D1%3BstrokeColor%3Dnone%3BfillColor%3Dnone%3Balign%3Dcenter%3BverticalAlign%3Dmiddle%3BwhiteSpace%3Dwrap%3Brounded%3D0%3B%22%20vertex%3D%221%22%20parent%3D%227%22%3E%3CmxGeometry%20x%3D%2246.84931506849314%22%20width%3D%2246.84931506849314%22%20height%3D%2223.125%22%20as%3D%22geometry%22%2F%3E%3C%2FmxCell%3E%3CmxCell%20id%3D%2210%22%20value%3D%22conact-us%22%20style%3D%22text%3Bhtml%3D1%3BstrokeColor%3Dnone%3BfillColor%3Dnone%3Balign%3Dcenter%3BverticalAlign%3Dmiddle%3BwhiteSpace%3Dwrap%3Brounded%3D0%3B%22%20vertex%3D%221%22%20parent%3D%227%22%3E%3CmxGeometry%20x%3D%2293.69863013698628%22%20width%3D%2246.84931506849314%22%20height%3D%2223.125%22%20as%3D%22geometry%22%2F%3E%3C%2FmxCell%3E%3CmxCell%20id%3D%2211%22%20value%3D%22projects%22%20style%3D%22text%3Bhtml%3D1%3BstrokeColor%3Dnone%3BfillColor%3Dnone%3Balign%3Dcenter%3BverticalAlign%3Dmiddle%3BwhiteSpace%3Dwrap%3Brounded%3D0%3B%22%20vertex%3D%221%22%20parent%3D%227%22%3E%3CmxGeometry%20x%3D%22148.35616438356163%22%20width%3D%2246.84931506849314%22%20height%3D%2223.125%22%20as%3D%22geometry%22%2F%3E%3C%2FmxCell%3E%3CmxCell%20id%3D%2212%22%20value%3D%22%26lt%3Bh1%26gt%3BHeading%26lt%3B%2Fh1%26gt%3B%26lt%3Bp%26gt%3BLorem%20ipsum%20dolor%20sit%20amet%2C%20consectetur%20adipisicing%20elit%2C%20sed%20do%20eiusmod%20tempor%20incididunt%20ut%20labore%20et%20dolore%20magna%20aliqua.%26lt%3B%2Fp%26gt%3B%22%20style%3D%22text%3Bhtml%3D1%3BstrokeColor%3Dnone%3BfillColor%3Dnone%3Bspacing%3D5%3BspacingTop%3D-20%3BwhiteSpace%3Dwrap%3Boverflow%3Dhidden%3Brounded%3D0%3BlabelBackgroundColor%3Dnone%3B%22%20vertex%3D%221%22%20parent%3D%222%22%3E%3CmxGeometry%20x%3D%2250%22%20y%3D%2280%22%20width%3D%22190%22%20height%3D%22120%22%20as%3D%22geometry%22%2F%3E%3C%2FmxCell%3E%3CmxCell%20id%3D%2213%22%20value%3D%22Button%20Text%22%20style%3D%22strokeWidth%3D1%3Bshadow%3D0%3Bdashed%3D0%3Balign%3Dcenter%3Bhtml%3D1%3Bshape%3Dmxgraph.mockup.buttons.button%3BstrokeColor%3D%23666666%3BfontColor%3D%23ffffff%3BmainText%3D%3BbuttonStyle%3Dround%3BfontSize%3D14%3BfontStyle%3D1%3BfillColor%3D%23008cff%3BwhiteSpace%3Dwrap%3BlabelBackgroundColor%3Dnone%3B%22%20vertex%3D%221%22%20parent%3D%222%22%3E%3CmxGeometry%20x%3D%2280%22%20y%3D%22200%22%20width%3D%22110%22%20height%3D%2230%22%20as%3D%22geometry%22%2F%3E%3C%2FmxCell%3E%3C%2Froot%3E%3C%2FmxGraphModel%3E&lt;/span&gt;" style="rounded=0;whiteSpace=wrap;html=1;fillColor=#647687;fontColor=#ffffff;strokeColor=#314354;" parent="16" vertex="1">
                    <mxGeometry width="570" height="370" as="geometry"/>
                </mxCell>
                <mxCell id="18" value="" style="group" parent="16" vertex="1" connectable="0">
                    <mxGeometry width="570" height="70" as="geometry"/>
                </mxCell>
                <mxCell id="19" value="" style="rounded=0;whiteSpace=wrap;html=1;fillColor=#485561;fontColor=#ffffff;strokeColor=#314354;" parent="18" vertex="1">
                    <mxGeometry width="570" height="38.54166666666667" as="geometry"/>
                </mxCell>
                <mxCell id="20" value="LOGO" style="text;html=1;strokeColor=none;fillColor=none;align=center;verticalAlign=middle;whiteSpace=wrap;rounded=0;" parent="18" vertex="1">
                    <mxGeometry x="261.57287671232876" y="7.708333333333333" width="46.84931506849315" height="23.125" as="geometry"/>
                </mxCell>
                <mxCell id="73" value="MENU ///" style="text;html=1;strokeColor=none;fillColor=none;align=center;verticalAlign=middle;whiteSpace=wrap;rounded=0;" parent="18" vertex="1">
                    <mxGeometry x="480" y="7.71" width="76.85" height="23.13" as="geometry"/>
                </mxCell>
                <mxCell id="75" value="&amp;nbsp;0526934140&amp;nbsp;" style="text;html=1;strokeColor=none;fillColor=none;align=center;verticalAlign=middle;whiteSpace=wrap;rounded=0;" parent="18" vertex="1">
                    <mxGeometry x="30" y="7.71" width="100" height="23.13" as="geometry"/>
                </mxCell>
                <mxCell id="76" value="" style="image;html=1;image=img/lib/clip_art/telecommunication/iPhone_128x128.png;labelBackgroundColor=none;fontSize=19;fillColor=#485561;gradientColor=#1638E0;" parent="18" vertex="1">
                    <mxGeometry x="10" y="4.280000000000001" width="50" height="30" as="geometry"/>
                </mxCell>
                <mxCell id="55" value="&lt;h1 style=&quot;&quot;&gt;&lt;font style=&quot;font-size: 50px;&quot;&gt;websites&lt;/font&gt;&lt;/h1&gt;" style="text;html=1;strokeColor=none;fillColor=none;spacing=5;spacingTop=-20;whiteSpace=wrap;overflow=hidden;rounded=0;labelBackgroundColor=none;fontSize=35;" parent="16" vertex="1">
                    <mxGeometry x="165" y="50" width="240" height="170" as="geometry"/>
                </mxCell>
                <mxCell id="79" value="&lt;font style=&quot;font-size: 24px;&quot;&gt;&lt;b&gt;full stack&lt;/b&gt;&lt;/font&gt;" style="text;html=1;strokeColor=none;fillColor=none;align=center;verticalAlign=middle;whiteSpace=wrap;rounded=0;labelBackgroundColor=none;fontSize=14;fontColor=#46c0ec;" parent="16" vertex="1">
                    <mxGeometry x="200" y="80" width="150" height="40" as="geometry"/>
                </mxCell>
                <mxCell id="90" value="&lt;font style=&quot;font-size: 11px;&quot;&gt;&lt;b style=&quot;font-size: 11px;&quot;&gt;see my work&lt;/b&gt;&lt;/font&gt;" style="text;html=1;strokeColor=none;fillColor=none;align=center;verticalAlign=middle;whiteSpace=wrap;rounded=0;labelBackgroundColor=none;fontSize=11;fontColor=#F0F0F0;" parent="16" vertex="1">
                    <mxGeometry x="200" y="260" width="150" height="40" as="geometry"/>
                </mxCell>
                <mxCell id="70" value="&lt;font style=&quot;font-size: 12px;&quot;&gt;&lt;b style=&quot;font-size: 12px;&quot;&gt;scroll down&lt;/b&gt;&lt;/font&gt;" style="text;html=1;strokeColor=none;fillColor=none;align=center;verticalAlign=middle;whiteSpace=wrap;rounded=0;labelBackgroundColor=none;fontSize=12;" parent="16" vertex="1">
                    <mxGeometry x="200" y="340" width="150" height="20" as="geometry"/>
                </mxCell>
                <mxCell id="91" value="" style="edgeStyle=none;html=1;fontSize=11;fontColor=#F0F0F0;" parent="16" source="90" target="70" edge="1">
                    <mxGeometry relative="1" as="geometry"/>
                </mxCell>
                <mxCell id="100" value="&lt;font color=&quot;#000000&quot;&gt;if Scroll down one page&lt;/font&gt;" style="shape=process;whiteSpace=wrap;html=1;backgroundOutline=1;labelBackgroundColor=none;fontSize=12;fillColor=#eeeeee;strokeColor=#36393d;" parent="16" vertex="1">
                    <mxGeometry x="590" y="320" width="120" height="60" as="geometry"/>
                </mxCell>
                <mxCell id="99" style="edgeStyle=none;html=1;fontSize=12;fontColor=#000000;entryX=0;entryY=0.5;entryDx=0;entryDy=0;" parent="16" source="70" target="100" edge="1">
                    <mxGeometry relative="1" as="geometry">
                        <mxPoint x="810" y="350" as="targetPoint"/>
                    </mxGeometry>
                </mxCell>
                <mxCell id="69" value="&lt;span style=&quot;color: rgba(0, 0, 0, 0); font-family: monospace; font-size: 0px; text-align: start;&quot;&gt;%3CmxGraphModel%3E%3Croot%3E%3CmxCell%20id%3D%220%22%2F%3E%3CmxCell%20id%3D%221%22%20parent%3D%220%22%2F%3E%3CmxCell%20id%3D%222%22%20value%3D%22%22%20style%3D%22group%3BfontSize%3D7%3B%22%20vertex%3D%221%22%20connectable%3D%220%22%20parent%3D%221%22%3E%3CmxGeometry%20x%3D%22120%22%20y%3D%22100%22%20width%3D%22570%22%20height%3D%22370%22%20as%3D%22geometry%22%2F%3E%3C%2FmxCell%3E%3CmxCell%20id%3D%223%22%20value%3D%22%22%20style%3D%22rounded%3D0%3BwhiteSpace%3Dwrap%3Bhtml%3D1%3BfillColor%3D%23647687%3BfontColor%3D%23ffffff%3BstrokeColor%3D%23314354%3B%22%20vertex%3D%221%22%20parent%3D%222%22%3E%3CmxGeometry%20width%3D%22570%22%20height%3D%22370%22%20as%3D%22geometry%22%2F%3E%3C%2FmxCell%3E%3CmxCell%20id%3D%224%22%20value%3D%22%22%20style%3D%22group%22%20vertex%3D%221%22%20connectable%3D%220%22%20parent%3D%222%22%3E%3CmxGeometry%20width%3D%22570%22%20height%3D%2238.54166666666667%22%20as%3D%22geometry%22%2F%3E%3C%2FmxCell%3E%3CmxCell%20id%3D%225%22%20value%3D%22%22%20style%3D%22rounded%3D0%3BwhiteSpace%3Dwrap%3Bhtml%3D1%3BfillColor%3D%23485561%3BfontColor%3D%23ffffff%3BstrokeColor%3D%23314354%3B%22%20vertex%3D%221%22%20parent%3D%224%22%3E%3CmxGeometry%20width%3D%22570%22%20height%3D%2238.54166666666667%22%20as%3D%22geometry%22%2F%3E%3C%2FmxCell%3E%3CmxCell%20id%3D%226%22%20value%3D%22LOGO%22%20style%3D%22text%3Bhtml%3D1%3BstrokeColor%3Dnone%3BfillColor%3Dnone%3Balign%3Dcenter%3BverticalAlign%3Dmiddle%3BwhiteSpace%3Dwrap%3Brounded%3D0%3B%22%20vertex%3D%221%22%20parent%3D%224%22%3E%3CmxGeometry%20x%3D%2231.23287671232877%22%20y%3D%227.708333333333333%22%20width%3D%2246.84931506849315%22%20height%3D%2223.125%22%20as%3D%22geometry%22%2F%3E%3C%2FmxCell%3E%3CmxCell%20id%3D%227%22%20value%3D%22%22%20style%3D%22group%22%20vertex%3D%221%22%20connectable%3D%220%22%20parent%3D%224%22%3E%3CmxGeometry%20x%3D%22343.5616438356164%22%20y%3D%227.708333333333333%22%20width%3D%22195.2054794520548%22%20height%3D%2223.125%22%20as%3D%22geometry%22%2F%3E%3C%2FmxCell%3E%3CmxCell%20id%3D%228%22%20value%3D%22Home%22%20style%3D%22text%3Bhtml%3D1%3BstrokeColor%3D%236c8ebf%3BfillColor%3D%23dae8fc%3Balign%3Dcenter%3BverticalAlign%3Dmiddle%3BwhiteSpace%3Dwrap%3Brounded%3D0%3BgradientColor%3D%231638E0%3B%22%20vertex%3D%221%22%20parent%3D%227%22%3E%3CmxGeometry%20width%3D%2246.84931506849314%22%20height%3D%2223.125%22%20as%3D%22geometry%22%2F%3E%3C%2FmxCell%3E%3CmxCell%20id%3D%229%22%20value%3D%22About%22%20style%3D%22text%3Bhtml%3D1%3BstrokeColor%3Dnone%3BfillColor%3Dnone%3Balign%3Dcenter%3BverticalAlign%3Dmiddle%3BwhiteSpace%3Dwrap%3Brounded%3D0%3B%22%20vertex%3D%221%22%20parent%3D%227%22%3E%3CmxGeometry%20x%3D%2246.84931506849314%22%20width%3D%2246.84931506849314%22%20height%3D%2223.125%22%20as%3D%22geometry%22%2F%3E%3C%2FmxCell%3E%3CmxCell%20id%3D%2210%22%20value%3D%22conact-us%22%20style%3D%22text%3Bhtml%3D1%3BstrokeColor%3Dnone%3BfillColor%3Dnone%3Balign%3Dcenter%3BverticalAlign%3Dmiddle%3BwhiteSpace%3Dwrap%3Brounded%3D0%3B%22%20vertex%3D%221%22%20parent%3D%227%22%3E%3CmxGeometry%20x%3D%2293.69863013698628%22%20width%3D%2246.84931506849314%22%20height%3D%2223.125%22%20as%3D%22geometry%22%2F%3E%3C%2FmxCell%3E%3CmxCell%20id%3D%2211%22%20value%3D%22projects%22%20style%3D%22text%3Bhtml%3D1%3BstrokeColor%3Dnone%3BfillColor%3Dnone%3Balign%3Dcenter%3BverticalAlign%3Dmiddle%3BwhiteSpace%3Dwrap%3Brounded%3D0%3B%22%20vertex%3D%221%22%20parent%3D%227%22%3E%3CmxGeometry%20x%3D%22148.35616438356163%22%20width%3D%2246.84931506849314%22%20height%3D%2223.125%22%20as%3D%22geometry%22%2F%3E%3C%2FmxCell%3E%3CmxCell%20id%3D%2212%22%20value%3D%22%26lt%3Bh1%26gt%3BHeading%26lt%3B%2Fh1%26gt%3B%26lt%3Bp%26gt%3BLorem%20ipsum%20dolor%20sit%20amet%2C%20consectetur%20adipisicing%20elit%2C%20sed%20do%20eiusmod%20tempor%20incididunt%20ut%20labore%20et%20dolore%20magna%20aliqua.%26lt%3B%2Fp%26gt%3B%22%20style%3D%22text%3Bhtml%3D1%3BstrokeColor%3Dnone%3BfillColor%3Dnone%3Bspacing%3D5%3BspacingTop%3D-20%3BwhiteSpace%3Dwrap%3Boverflow%3Dhidden%3Brounded%3D0%3BlabelBackgroundColor%3Dnone%3B%22%20vertex%3D%221%22%20parent%3D%222%22%3E%3CmxGeometry%20x%3D%2250%22%20y%3D%2280%22%20width%3D%22190%22%20height%3D%22120%22%20as%3D%22geometry%22%2F%3E%3C%2FmxCell%3E%3CmxCell%20id%3D%2213%22%20value%3D%22Button%20Text%22%20style%3D%22strokeWidth%3D1%3Bshadow%3D0%3Bdashed%3D0%3Balign%3Dcenter%3Bhtml%3D1%3Bshape%3Dmxgraph.mockup.buttons.button%3BstrokeColor%3D%23666666%3BfontColor%3D%23ffffff%3BmainText%3D%3BbuttonStyle%3Dround%3BfontSize%3D14%3BfontStyle%3D1%3BfillColor%3D%23008cff%3BwhiteSpace%3Dwrap%3BlabelBackgroundColor%3Dnone%3B%22%20vertex%3D%221%22%20parent%3D%222%22%3E%3CmxGeometry%20x%3D%2280%22%20y%3D%22200%22%20width%3D%22110%22%20height%3D%2230%22%20as%3D%22geometry%22%2F%3E%3C%2FmxCell%3E%3C%2Froot%3E%3C%2FmxGraphModel%3E&lt;/span&gt;" style="rounded=0;whiteSpace=wrap;html=1;fillColor=#647687;fontColor=#ffffff;strokeColor=#314354;" parent="1" vertex="1">
                    <mxGeometry x="120" y="470" width="570" height="370" as="geometry"/>
                </mxCell>
                <mxCell id="94" value="" style="edgeStyle=none;html=1;fontSize=12;fontColor=#F0F0F0;" parent="1" source="73" target="93" edge="1">
                    <mxGeometry relative="1" as="geometry"/>
                </mxCell>
                <mxCell id="96" value="" style="group" parent="1" vertex="1" connectable="0">
                    <mxGeometry x="880" y="40" width="170" height="270" as="geometry"/>
                </mxCell>
                <mxCell id="93" value="" style="whiteSpace=wrap;html=1;labelBackgroundColor=none;fontSize=12;fillColor=#eeeeee;strokeColor=#36393d;" parent="96" vertex="1">
                    <mxGeometry width="170" height="270.00000000000006" as="geometry"/>
                </mxCell>
                <mxCell id="95" value="MENU" style="text;html=1;strokeColor=none;fillColor=none;align=center;verticalAlign=middle;whiteSpace=wrap;rounded=0;labelBackgroundColor=none;fontSize=12;fontColor=#000000;fontStyle=1" parent="96" vertex="1">
                    <mxGeometry x="67.99773340888638" y="6.044431409927413" width="33.99886670444319" height="19.79617273993695" as="geometry"/>
                </mxCell>
                <mxCell id="101" value="about us" style="text;html=1;strokeColor=none;fillColor=none;align=center;verticalAlign=middle;whiteSpace=wrap;rounded=0;labelBackgroundColor=none;fontSize=12;fontColor=#000000;" parent="1" vertex="1">
                    <mxGeometry x="365" y="480" width="60" height="30" as="geometry"/>
                </mxCell>
                <mxCell id="102" value="&lt;ol style=&quot;box-sizing: border-box; color: rgb(33, 33, 33); font-family: &amp;quot;DM Sans&amp;quot;, sans-serif; font-size: 19px; text-align: start; background-color: rgb(255, 255, 255);&quot;&gt;&lt;li style=&quot;box-sizing: border-box;&quot;&gt;Who you are&lt;/li&gt;&lt;li style=&quot;box-sizing: border-box;&quot;&gt;What you do&lt;/li&gt;&lt;li style=&quot;box-sizing: border-box;&quot;&gt;Your location&lt;/li&gt;&lt;li style=&quot;box-sizing: border-box;&quot;&gt;The work you have to share&lt;/li&gt;&lt;li style=&quot;box-sizing: border-box;&quot;&gt;How to contact you&amp;nbsp;&lt;/li&gt;&lt;/ol&gt;" style="rounded=1;whiteSpace=wrap;html=1;labelBackgroundColor=none;fontSize=12;fillColor=#f9f7ed;strokeColor=#36393d;" parent="1" vertex="1">
                    <mxGeometry x="260" y="-490" width="400" height="380" as="geometry"/>
                </mxCell>
                <mxCell id="104" value="what include&amp;nbsp;" style="text;html=1;strokeColor=none;fillColor=none;align=center;verticalAlign=middle;whiteSpace=wrap;rounded=0;labelBackgroundColor=none;fontSize=12;fontColor=#000000;" parent="1" vertex="1">
                    <mxGeometry x="430" y="-470" width="60" height="30" as="geometry"/>
                </mxCell>
                <mxCell id="105" value="&lt;div&gt;Hello, I'm Orel Karako, a passionate full-stack programmer and web designer based in Israel. With 29 years of age and a strong background in various programming languages and web technologies, I bring creativity, expertise, and a commitment to delivering high-quality solutions.&lt;/div&gt;&lt;div&gt;&lt;br&gt;&lt;/div&gt;&lt;div&gt;As a full-stack programmer, I possess extensive knowledge and hands-on experience in various technologies. My skill set includes proficiency in React, MongoDB, Mongoose, Express, Node.js, HTML, and CSS. These tools enable me to build dynamic and responsive web applications that meet client requirements and deliver a seamless user experience.&lt;/div&gt;&lt;div&gt;&lt;br&gt;&lt;/div&gt;&lt;div&gt;I thrive on challenging projects and enjoy tackling complex problems with innovative solutions. My attention to detail and ability to think critically allow me to design and develop robust, scalable, and efficient web applications. I believe in staying updated with industry trends and continually expanding my knowledge base to provide cutting-edge solutions.&lt;/div&gt;&lt;div&gt;&lt;br&gt;&lt;/div&gt;&lt;div&gt;I take pride in my ability to collaborate effectively with teams and clients, ensuring that their visions are translated into functional and visually appealing websites. I value open communication, and I am always ready to listen, learn, and adapt to meet project goals and exceed expectations.&lt;/div&gt;&lt;div&gt;&lt;br&gt;&lt;/div&gt;&lt;div&gt;If you're looking for a dedicated and skilled full-stack programmer and web designer, I would love to discuss your project and how I can contribute to its success. Feel free to reach out to me through the contact information provided on this page.&lt;/div&gt;&lt;div&gt;&lt;br&gt;&lt;/div&gt;&lt;div&gt;Thank you for visiting my portfolio!&lt;/div&gt;" style="text;html=1;strokeColor=none;fillColor=none;align=center;verticalAlign=middle;whiteSpace=wrap;rounded=0;labelBackgroundColor=none;fontSize=12;fontColor=#FFFCFE;" parent="1" vertex="1">
                    <mxGeometry x="450" y="-1000" width="780" height="630" as="geometry"/>
                </mxCell>
                <mxCell id="106" value="" style="rounded=0;whiteSpace=wrap;html=1;labelBackgroundColor=none;fontSize=12;fillColor=#eeeeee;strokeColor=#36393d;" parent="1" vertex="1">
                    <mxGeometry x="950" y="-240" width="630" height="160" as="geometry"/>
                </mxCell>
                <mxCell id="107" value="&lt;ol&gt;&lt;li&gt;Home&lt;/li&gt;&lt;li&gt;Services&lt;/li&gt;&lt;li&gt;About&lt;/li&gt;&lt;li&gt;Profolio&lt;/li&gt;&lt;li&gt;Blog&lt;/li&gt;&lt;li&gt;Skills&lt;/li&gt;&lt;li&gt;Contact&lt;/li&gt;&lt;/ol&gt;" style="text;html=1;strokeColor=none;fillColor=none;align=center;verticalAlign=middle;whiteSpace=wrap;rounded=0;labelBackgroundColor=none;fontSize=12;fontColor=#000000;" parent="1" vertex="1">
                    <mxGeometry x="960" y="-240" width="370" height="160" as="geometry"/>
                </mxCell>
            </root>
        </mxGraphModel>
    </diagram>
</mxfile>